<svg width="24" height="24" viewBox="0 0 24 24" fill="none" xmlns="http://www.w3.org/2000/svg">
<path d="M20.9804 6.42784L16.9068 2.63539C16.7063 2.44889 16.4625 2.29988 16.1908 2.19781C15.9191 2.09575 15.6255 2.04285 15.3285 2.04248H3.81196C3.2451 2.04305 2.70165 2.23495 2.30081 2.57608C1.89998 2.91722 1.6745 3.37973 1.67383 3.86217V19.627C1.6745 20.1095 1.89998 20.572 2.30081 20.9131C2.70165 21.2543 3.2451 21.4462 3.81196 21.4467H19.4021C19.969 21.4462 20.5124 21.2543 20.9132 20.9131C21.3141 20.572 21.5396 20.1095 21.5402 19.627V7.64815C21.5391 7.19618 21.3394 6.76091 20.9804 6.42784ZM19.6301 6.96901H17.0056C16.9113 6.96873 16.8181 6.95258 16.7312 6.92149C16.6443 6.89041 16.5655 6.845 16.4993 6.78788C16.4332 6.73076 16.3809 6.66307 16.3456 6.5887C16.3103 6.51432 16.2927 6.43474 16.2937 6.35454V3.86217L19.6301 6.96901ZM19.4021 20.235H3.81196C3.62249 20.235 3.44078 20.171 3.3068 20.057C3.17283 19.9429 3.09756 19.7883 3.09756 19.627V3.86217C3.09756 3.70092 3.17283 3.54627 3.3068 3.43225C3.44078 3.31823 3.62249 3.25417 3.81196 3.25417H14.8674V6.35454C14.8681 6.83697 15.0936 7.29949 15.4944 7.64062C15.8952 7.98175 16.4387 8.17365 17.0056 8.17422H20.1165V19.627C20.1165 19.7883 20.0412 19.9429 19.9073 20.057C19.7733 20.171 19.5916 20.235 19.4021 20.235Z" fill="#45BE57"/>
<path d="M15.9694 7.19313L15.787 2.90479H2.65674V20.6554H20.6003V7.24271L15.9694 7.19313ZM9.1598 14.8772H8.37194C8.32747 14.877 8.28397 14.8661 8.24636 14.8459C8.20875 14.8258 8.17853 14.797 8.15914 14.7629L7.693 13.9523L7.50047 13.5944C7.43967 13.4779 7.36874 13.3486 7.29274 13.2106H7.2598C7.20154 13.3486 7.14074 13.4779 7.08247 13.5944C7.0242 13.7108 6.96087 13.8315 6.90261 13.9523L6.46687 14.7629C6.44802 14.7981 6.41772 14.828 6.37957 14.849C6.34141 14.87 6.29699 14.8813 6.25154 14.8815H5.527C5.4856 14.8817 5.44485 14.8727 5.40878 14.8554C5.37272 14.838 5.34258 14.813 5.32135 14.7828C5.30012 14.7525 5.28853 14.7181 5.28772 14.6828C5.28691 14.6476 5.29691 14.6128 5.31674 14.5818L6.54287 12.6414C6.5615 12.6119 6.57125 12.579 6.57125 12.5455C6.57125 12.512 6.5615 12.479 6.54287 12.4495L5.40541 10.6428C5.38558 10.6118 5.37558 10.577 5.37639 10.5418C5.3772 10.5066 5.38879 10.4721 5.41002 10.4418C5.43125 10.4116 5.46138 10.3866 5.49745 10.3692C5.53351 10.3519 5.57426 10.3429 5.61567 10.3431H6.40354C6.44905 10.343 6.49361 10.3542 6.53183 10.3753C6.57004 10.3963 6.60027 10.4263 6.61887 10.4617L7.02167 11.1969C7.07994 11.3047 7.14074 11.4125 7.199 11.5354L7.4042 11.9278H7.43714C7.49541 11.7833 7.5562 11.6518 7.61194 11.5354L7.77914 11.1969L8.1414 10.4681C8.16101 10.432 8.19197 10.4012 8.23087 10.3791C8.26977 10.3571 8.31509 10.3446 8.3618 10.3431H9.07367C9.11342 10.3459 9.15182 10.3567 9.18575 10.3746C9.21967 10.3924 9.24816 10.4168 9.2689 10.4458C9.28964 10.4748 9.30204 10.5076 9.3051 10.5414C9.30815 10.5753 9.30177 10.6093 9.28647 10.6406L8.14647 12.497C8.12906 12.5268 8.12001 12.5596 8.12001 12.5929C8.12001 12.6262 8.12906 12.659 8.14647 12.6888L9.36247 14.5732C9.38323 14.6038 9.39423 14.6385 9.39439 14.6738C9.39455 14.7091 9.38386 14.7439 9.36338 14.7746C9.3429 14.8053 9.31333 14.8309 9.27763 14.8489C9.24192 14.8669 9.2013 14.8767 9.1598 14.8772ZM13.5855 14.6745C13.5855 14.7283 13.5604 14.7798 13.5158 14.8179C13.4711 14.8559 13.4106 14.8772 13.3474 14.8772H10.5202C10.457 14.8772 10.3965 14.8559 10.3518 14.8179C10.3072 14.7798 10.2821 14.7283 10.2821 14.6745V10.5501C10.2821 10.4963 10.3072 10.4448 10.3518 10.4068C10.3965 10.3687 10.457 10.3474 10.5202 10.3474H11.2422C11.3054 10.3474 11.3659 10.3687 11.4106 10.4068C11.4552 10.4448 11.4803 10.4963 11.4803 10.5501V13.8121C11.4803 13.8659 11.5054 13.9174 11.5501 13.9554C11.5947 13.9934 11.6553 14.0148 11.7185 14.0148H13.3474C13.4106 14.0148 13.4711 14.0362 13.5158 14.0742C13.5604 14.1122 13.5855 14.1637 13.5855 14.2175V14.6745ZM17.7782 14.0946C17.6873 14.2679 17.5533 14.4223 17.3855 14.5473C17.1988 14.6817 16.9839 14.7849 16.7522 14.8513C16.4794 14.9314 16.1921 14.9701 15.9035 14.9656C15.548 14.9643 15.1955 14.9096 14.8623 14.8039C14.601 14.7177 14.3573 14.5969 14.1403 14.446C14.091 14.4107 14.0594 14.3607 14.0518 14.3062C14.0443 14.2517 14.0615 14.1969 14.0998 14.1528L14.4874 13.7561C14.5251 13.7172 14.5786 13.6919 14.6373 13.6851C14.696 13.6783 14.7555 13.6905 14.8041 13.7194C14.9491 13.8081 15.1045 13.884 15.2677 13.9458C15.4812 14.0305 15.7136 14.0753 15.9491 14.0773C16.1459 14.0902 16.3423 14.0486 16.509 13.9587C16.5646 13.9207 16.6086 13.8719 16.6372 13.8163C16.6659 13.7608 16.6784 13.7002 16.6737 13.6397C16.6758 13.577 16.6573 13.515 16.6205 13.4607C16.582 13.4059 16.5291 13.3594 16.4659 13.3249C16.3863 13.28 16.3014 13.2425 16.2126 13.2128L15.9137 13.0985L15.2221 12.8484C15.0817 12.8013 14.9482 12.7405 14.8243 12.6673C14.697 12.5938 14.582 12.5061 14.4823 12.4064C14.3743 12.3044 14.2885 12.1869 14.229 12.0593C14.1668 11.9166 14.1367 11.7652 14.1403 11.613C14.1445 11.4341 14.1947 11.2583 14.2873 11.0977C14.3807 10.9318 14.5145 10.7848 14.6799 10.6665C14.857 10.539 15.0607 10.441 15.2803 10.3776C15.5248 10.3059 15.7818 10.2702 16.0403 10.2719C16.3547 10.2731 16.6659 10.325 16.9574 10.425C17.1804 10.5 17.3888 10.6032 17.5755 10.7312C17.6231 10.7666 17.6533 10.8159 17.6604 10.8694C17.6674 10.9228 17.6507 10.9766 17.6135 11.0201L17.2842 11.3672C17.2454 11.4044 17.1926 11.429 17.1349 11.4368C17.0772 11.4447 17.0181 11.4353 16.9675 11.4103C16.858 11.3474 16.7418 11.2933 16.6205 11.2486C16.4364 11.1849 16.2391 11.1533 16.0403 11.1559C15.8623 11.1452 15.6848 11.1829 15.5337 11.2637C15.4753 11.2964 15.4278 11.3413 15.3958 11.3942C15.3639 11.4471 15.3485 11.5061 15.3513 11.5656C15.3492 11.6285 15.3705 11.6903 15.4121 11.7423C15.4581 11.7951 15.5157 11.8398 15.5818 11.8739C15.6625 11.9171 15.7472 11.9545 15.8351 11.986L16.1543 12.1002L16.8383 12.3353C17.1327 12.432 17.394 12.5899 17.5983 12.7945C17.7963 13.0154 17.896 13.2889 17.8795 13.5663C17.8894 13.7465 17.8549 13.9264 17.7782 14.0946Z" fill="#45BE57"/>
</svg>
