<svg width="23" height="28" viewBox="0 0 23 28" fill="none" xmlns="http://www.w3.org/2000/svg">
<path d="M20.1066 7.49931L16.2027 3.07478C16.0106 2.8572 15.777 2.68336 15.5166 2.56428C15.2562 2.4452 14.9748 2.38349 14.6902 2.38306H3.65354C3.11029 2.38372 2.58948 2.60761 2.20535 3.0056C1.82122 3.40358 1.60513 3.94318 1.60449 4.50603V22.8984C1.60513 23.4612 1.82122 24.0008 2.20535 24.3988C2.58948 24.7968 3.11029 25.0207 3.65354 25.0214H18.5941C19.1373 25.0207 19.6581 24.7968 20.0423 24.3988C20.4264 24.0008 20.6425 23.4612 20.6431 22.8984V8.92301C20.642 8.3957 20.4506 7.88789 20.1066 7.49931ZM18.8126 8.13067H16.2974C16.2071 8.13034 16.1177 8.1115 16.0345 8.07524C15.9512 8.03897 15.8757 7.98599 15.8123 7.91936C15.7489 7.85272 15.6988 7.77374 15.665 7.68698C15.6312 7.60021 15.6142 7.50736 15.6152 7.41379V4.50603L18.8126 8.13067ZM18.5941 23.6077H3.65354C3.47196 23.6077 3.29782 23.533 3.16943 23.4C3.04103 23.2669 2.9689 23.0865 2.9689 22.8984V4.50603C2.9689 4.3179 3.04103 4.13748 3.16943 4.00445C3.29782 3.87143 3.47196 3.79669 3.65354 3.79669H14.2484V7.41379C14.249 7.97663 14.4651 8.51623 14.8492 8.91422C15.2334 9.31221 15.7542 9.53609 16.2974 9.53676H19.2787V22.8984C19.2787 23.0865 19.2066 23.2669 19.0782 23.4C18.9498 23.533 18.7757 23.6077 18.5941 23.6077Z" fill="#45BE57"/>
<path d="M15.3044 8.39222L15.1296 3.38916H2.54639V24.0982H19.7423V8.45008L15.3044 8.39222ZM8.77849 17.357H8.02345C7.98084 17.3567 7.93915 17.3441 7.9031 17.3205C7.86706 17.297 7.83811 17.2634 7.81952 17.2237L7.37281 16.2779L7.1883 15.8603C7.13003 15.7245 7.06205 15.5736 6.98922 15.4126H6.95766C6.90182 15.5736 6.84355 15.7245 6.78771 15.8603C6.73188 15.9962 6.67118 16.137 6.61534 16.2779L6.19776 17.2237C6.17969 17.2647 6.15066 17.2996 6.1141 17.3241C6.07753 17.3486 6.03496 17.3618 5.9914 17.362H5.29706C5.25737 17.3622 5.21832 17.3517 5.18376 17.3315C5.1492 17.3113 5.12032 17.2821 5.09998 17.2468C5.07963 17.2115 5.06852 17.1713 5.06775 17.1302C5.06697 17.0891 5.07655 17.0485 5.09555 17.0124L6.2706 14.7486C6.28845 14.7141 6.29779 14.6757 6.29779 14.6366C6.29779 14.5976 6.28845 14.5591 6.2706 14.5247L5.18053 12.4168C5.16153 12.3807 5.15194 12.3401 5.15272 12.299C5.15349 12.2579 5.1646 12.2177 5.18495 12.1824C5.20529 12.1471 5.23417 12.1179 5.26873 12.0977C5.3033 12.0775 5.34235 12.067 5.38203 12.0672H6.13707C6.18069 12.0671 6.22339 12.0802 6.26001 12.1047C6.29663 12.1293 6.32561 12.1643 6.34343 12.2055L6.72945 13.0633C6.78529 13.189 6.84355 13.3148 6.89939 13.4582L7.09604 13.916H7.1276C7.18344 13.7474 7.24171 13.594 7.29512 13.4582L7.45535 13.0633L7.80253 12.2131C7.82131 12.1709 7.85099 12.135 7.88826 12.1092C7.92554 12.0835 7.96897 12.0689 8.01374 12.0672H8.69595C8.73404 12.0705 8.77084 12.0831 8.80335 12.1039C8.83587 12.1247 8.86317 12.1532 8.88305 12.187C8.90292 12.2209 8.91481 12.2591 8.91773 12.2986C8.92066 12.3381 8.91454 12.3777 8.89988 12.4143L7.80738 14.58C7.7907 14.6148 7.78202 14.6531 7.78202 14.692C7.78202 14.7308 7.7907 14.7691 7.80738 14.8039L8.97271 17.0023C8.99261 17.038 9.00315 17.0785 9.0033 17.1197C9.00345 17.1609 8.99321 17.2014 8.97358 17.2373C8.95395 17.2731 8.92562 17.303 8.89141 17.324C8.85718 17.345 8.81826 17.3564 8.77849 17.357ZM13.0198 17.1205C13.0198 17.1833 12.9958 17.2434 12.953 17.2877C12.9102 17.3321 12.8521 17.357 12.7916 17.357H10.0822C10.0217 17.357 9.96364 17.3321 9.92084 17.2877C9.87804 17.2434 9.854 17.1833 9.854 17.1205V12.3086C9.854 12.2459 9.87804 12.1858 9.92084 12.1415C9.96364 12.0971 10.0217 12.0722 10.0822 12.0722H10.7741C10.8347 12.0722 10.8927 12.0971 10.9355 12.1415C10.9783 12.1858 11.0023 12.2459 11.0023 12.3086V16.1144C11.0023 16.1771 11.0264 16.2372 11.0692 16.2816C11.112 16.3259 11.17 16.3508 11.2305 16.3508H12.7916C12.8521 16.3508 12.9102 16.3758 12.953 16.4201C12.9958 16.4644 13.0198 16.5246 13.0198 16.5873V17.1205ZM17.0378 16.4439C16.9507 16.6461 16.8223 16.8263 16.6615 16.9721C16.4825 17.1289 16.2766 17.2493 16.0545 17.3268C15.7931 17.4202 15.5178 17.4654 15.2412 17.4601C14.9005 17.4586 14.5627 17.3947 14.2434 17.2715C13.993 17.1709 13.7595 17.03 13.5515 16.8539C13.5042 16.8127 13.4739 16.7544 13.4667 16.6908C13.4595 16.6273 13.4759 16.5633 13.5127 16.5118L13.8841 16.049C13.9202 16.0037 13.9715 15.9741 14.0278 15.9662C14.084 15.9582 14.1411 15.9725 14.1876 16.0062C14.3266 16.1097 14.4755 16.1982 14.6319 16.2704C14.8365 16.3692 15.0592 16.4215 15.2849 16.4238C15.4735 16.4389 15.6617 16.3903 15.8215 16.2854C15.8747 16.2411 15.9169 16.1841 15.9443 16.1193C15.9718 16.0545 15.9838 15.9838 15.9793 15.9132C15.9813 15.84 15.9636 15.7677 15.9283 15.7044C15.8914 15.6404 15.8407 15.5862 15.7802 15.5459C15.7039 15.4936 15.6226 15.4498 15.5374 15.4151L15.2509 15.2818L14.5882 14.99C14.4537 14.9351 14.3257 14.8642 14.207 14.7787C14.085 14.6931 13.9748 14.5907 13.8793 14.4744C13.7757 14.3554 13.6935 14.2183 13.6365 14.0694C13.5768 13.9029 13.548 13.7263 13.5515 13.5487C13.5555 13.3401 13.6036 13.1349 13.6923 12.9476C13.7818 12.7541 13.9101 12.5825 14.0686 12.4445C14.2383 12.2958 14.4335 12.1814 14.644 12.1074C14.8783 12.0238 15.1246 11.9822 15.3723 11.9842C15.6736 11.9855 15.9718 12.0461 16.2512 12.1628C16.4649 12.2502 16.6646 12.3707 16.8436 12.5199C16.8891 12.5613 16.9181 12.6188 16.9249 12.6812C16.9316 12.7435 16.9156 12.8062 16.88 12.857L16.5644 13.262C16.5272 13.3053 16.4766 13.334 16.4213 13.3432C16.366 13.3524 16.3093 13.3415 16.2609 13.3123C16.1559 13.2389 16.0446 13.1757 15.9283 13.1236C15.7519 13.0492 15.5628 13.0125 15.3723 13.0155C15.2017 13.0029 15.0317 13.047 14.8868 13.1412C14.8308 13.1793 14.7853 13.2318 14.7547 13.2935C14.7241 13.3552 14.7093 13.4241 14.712 13.4934C14.71 13.5668 14.7304 13.6389 14.7702 13.6996C14.8143 13.7612 14.8696 13.8134 14.9329 13.8531C15.0103 13.9035 15.0915 13.9472 15.1757 13.9839L15.4816 14.1172L16.1371 14.3914C16.4192 14.5043 16.6696 14.6884 16.8654 14.9271C17.0552 15.1849 17.1507 15.5039 17.1349 15.8276C17.1444 16.0378 17.1113 16.2478 17.0378 16.4439Z" fill="#45BE57"/>
</svg>
