<svg width="23" height="16" viewBox="0 0 23 16" fill="none" xmlns="http://www.w3.org/2000/svg">
<g clip-path="url(#clip0_4028_1567)">
<path d="M9.21657 11.9042L8.4555 12.6395C7.12771 13.9226 4.96732 13.9222 3.63953 12.6393C2.99645 12.0179 2.64225 11.1917 2.64225 10.3128C2.64225 9.43394 2.99645 8.60794 3.63953 7.98639L6.22542 5.48794C6.86873 4.86639 7.7241 4.52417 8.63352 4.52417C9.54294 4.52417 10.3981 4.86639 11.0414 5.48794C11.9938 6.40816 12.2956 7.7875 11.8105 9.00194C11.6274 9.45994 11.8632 9.97461 12.3374 10.1513C12.8112 10.3279 13.3441 10.1004 13.527 9.64217C14.2743 7.77194 13.8094 5.64794 12.3427 4.23083C11.3519 3.2735 10.0349 2.74639 8.63375 2.74639C7.23259 2.74639 5.91561 3.2735 4.92477 4.23083L2.33865 6.72928C1.34781 7.68661 0.802246 8.95905 0.802246 10.3126C0.802016 11.6664 1.34781 12.9391 2.33865 13.8962C3.36123 14.8842 4.70443 15.3782 6.04786 15.3782C7.39083 15.3782 8.73426 14.8842 9.75661 13.8964L10.5177 13.1611C10.8772 12.8137 10.8772 12.2511 10.5177 11.9039C10.1586 11.5571 9.5756 11.5571 9.21657 11.9042ZM20.6614 2.1035C18.616 0.127499 15.2886 0.127721 13.2432 2.1035L12.4821 2.83883C12.1226 3.18617 12.1226 3.74883 12.4821 4.09594C12.8411 4.44305 13.4242 4.44305 13.783 4.09594L14.5441 3.36061C15.8716 2.07817 18.0325 2.07772 19.36 3.36061C20.6878 4.6435 20.6876 6.73105 19.36 8.01372L16.7746 10.5119C15.4473 11.7948 13.2866 11.7948 11.9589 10.5119C11.0062 9.5915 10.7047 8.21217 11.1897 6.99794C11.3728 6.53994 11.1371 6.02528 10.6628 5.84861C10.1883 5.67128 9.6561 5.89994 9.47325 6.35772C8.72598 8.22772 9.19081 10.3517 10.6575 11.7693C11.6799 12.7573 13.0231 13.2511 14.3665 13.2511C15.7097 13.2511 17.0529 12.7571 18.0755 11.7693L20.6611 9.27083C22.7065 7.29483 22.7065 4.07972 20.6614 2.1035Z" fill="#369A47"/>
</g>
<defs>
<clipPath id="clip0_4028_1567">
<rect width="23" height="16" fill="white"/>
</clipPath>
</defs>
</svg>
