<svg width="24" height="24" viewBox="0 0 24 24" fill="none" xmlns="http://www.w3.org/2000/svg">
<path d="M20.8802 6.14307L17.021 1.87882C16.8311 1.66913 16.6002 1.50158 16.3428 1.38682C16.0854 1.27205 15.8072 1.21257 15.5258 1.21216H4.61544C4.07842 1.2128 3.56357 1.42857 3.18383 1.81214C2.80409 2.19572 2.59048 2.71577 2.58984 3.25822V20.9843C2.59048 21.5267 2.80409 22.0468 3.18383 22.4304C3.56357 22.8139 4.07842 23.0297 4.61544 23.0303H19.385C19.9221 23.0297 20.4369 22.8139 20.8167 22.4304C21.1964 22.0468 21.41 21.5267 21.4106 20.9843V7.51519C21.4095 7.00699 21.2204 6.51756 20.8802 6.14307ZM19.601 6.75155H17.1146C17.0254 6.75124 16.937 6.73308 16.8547 6.69813C16.7724 6.66318 16.6978 6.61212 16.6351 6.5479C16.5724 6.48367 16.5229 6.40756 16.4895 6.32393C16.456 6.24031 16.4393 6.15083 16.4402 6.06064V3.25822L19.601 6.75155ZM19.385 21.6679H4.61544C4.43595 21.6679 4.2638 21.5959 4.13687 21.4677C4.00995 21.3395 3.93864 21.1656 3.93864 20.9843V3.25822C3.93864 3.07691 4.00995 2.90302 4.13687 2.77481C4.2638 2.64661 4.43595 2.57458 4.61544 2.57458H15.089V6.06064C15.0897 6.6031 15.3033 7.12315 15.683 7.50672C16.0628 7.89029 16.5776 8.10606 17.1146 8.1067H20.0618V20.9843C20.0618 21.1656 19.9905 21.3395 19.8636 21.4677C19.7367 21.5959 19.5645 21.6679 19.385 21.6679Z" fill="#B80E00"/>
<path d="M16.133 7.0037L15.9602 2.18188H3.521V22.1407H20.5202V7.05946L16.133 7.0037ZM9.6962 12.9649C9.59627 13.1755 9.44919 13.3598 9.2666 13.5031C9.07989 13.648 8.86718 13.755 8.6402 13.8182C8.39328 13.8875 8.13804 13.9217 7.8818 13.9201H7.481C7.42228 13.9235 7.36687 13.9487 7.32528 13.9907C7.28369 14.0327 7.25883 14.0886 7.2554 14.1479V15.4182C7.2554 15.4787 7.23163 15.5366 7.18932 15.5794C7.14701 15.6221 7.08963 15.6461 7.0298 15.6461H6.3458C6.31617 15.6461 6.28683 15.6402 6.25946 15.6288C6.23209 15.6173 6.20722 15.6005 6.18627 15.5794C6.16532 15.5582 6.14871 15.5331 6.13737 15.5055C6.12603 15.4778 6.1202 15.4482 6.1202 15.4182V10.7782C6.1202 10.7483 6.12603 10.7187 6.13737 10.691C6.14871 10.6634 6.16532 10.6383 6.18627 10.6171C6.20722 10.596 6.23209 10.5792 6.25946 10.5677C6.28683 10.5563 6.31617 10.5504 6.3458 10.5504H7.8506C8.11362 10.5483 8.37606 10.5759 8.633 10.6328C8.86019 10.6818 9.07553 10.7757 9.2666 10.9092C9.4497 11.0389 9.59746 11.2131 9.6962 11.4158C9.80869 11.6591 9.86295 11.9257 9.8546 12.194C9.86027 12.4598 9.80611 12.7234 9.6962 12.9649ZM14.1914 14.2134C14.0837 14.516 13.9088 14.7896 13.6802 15.0134C13.4602 15.2318 13.1945 15.3975 12.9026 15.4982C12.5775 15.6067 12.2369 15.66 11.8946 15.6558H10.6442C10.5844 15.6558 10.527 15.6318 10.4847 15.5891C10.4424 15.5463 10.4186 15.4884 10.4186 15.4279V10.7782C10.4186 10.7178 10.4424 10.6598 10.4847 10.6171C10.527 10.5744 10.5844 10.5504 10.6442 10.5504H11.8442C12.1976 10.5464 12.5495 10.5962 12.8882 10.6982C13.1817 10.7893 13.4521 10.944 13.6802 11.1516C13.9089 11.3691 14.0832 11.6383 14.189 11.937C14.3167 12.3002 14.3777 12.6839 14.369 13.0692C14.3783 13.4583 14.3182 13.8459 14.1914 14.2134ZM18.197 11.2922C18.197 11.3526 18.1732 11.4106 18.1309 11.4533C18.0886 11.4961 18.0312 11.5201 17.9714 11.5201H16.3826C16.3228 11.5201 16.2654 11.5441 16.2231 11.5868C16.1808 11.6295 16.157 11.6875 16.157 11.7479V12.4752C16.157 12.5357 16.1808 12.5936 16.2231 12.6364C16.2654 12.6791 16.3228 12.7031 16.3826 12.7031H17.6786C17.7384 12.7031 17.7958 12.7271 17.8381 12.7698C17.8804 12.8126 17.9042 12.8705 17.9042 12.931V13.4449C17.9042 13.5054 17.8804 13.5633 17.8381 13.606C17.7958 13.6488 17.7384 13.6728 17.6786 13.6728H16.3826C16.3228 13.6728 16.2654 13.6968 16.2231 13.7395C16.1808 13.7823 16.157 13.8402 16.157 13.9007V15.4207C16.157 15.4811 16.1332 15.5391 16.0909 15.5818C16.0486 15.6245 15.9912 15.6486 15.9314 15.6486H15.245C15.1852 15.6486 15.1278 15.6245 15.0855 15.5818C15.0432 15.5391 15.0194 15.4811 15.0194 15.4207V10.7782C15.0194 10.7178 15.0432 10.6598 15.0855 10.6171C15.1278 10.5744 15.1852 10.5504 15.245 10.5504H17.9714C18.0312 10.5504 18.0886 10.5744 18.1309 10.6171C18.1732 10.6598 18.197 10.7178 18.197 10.7782V11.2922Z" fill="#B80E00"/>
<path d="M12.809 11.8206C12.6836 11.6965 12.5292 11.6064 12.3602 11.5588C12.1689 11.5041 11.9708 11.478 11.7722 11.4812H11.5562V14.7127H11.7722C11.9714 14.7161 12.1698 14.6874 12.3602 14.6279C12.5294 14.5732 12.6833 14.4784 12.809 14.3515C12.9408 14.2067 13.0399 14.0346 13.0994 13.8473C13.1737 13.5966 13.2078 13.3355 13.2002 13.0739C13.2069 12.8162 13.172 12.5591 13.097 12.3127C13.0393 12.1287 12.9408 11.9604 12.809 11.8206Z" fill="#B80E00"/>
<path d="M8.49377 11.6364C8.27457 11.5123 8.0245 11.4551 7.77377 11.4715H7.48097C7.42226 11.475 7.36685 11.5001 7.32526 11.5421C7.28367 11.5841 7.2588 11.6401 7.25537 11.6994V12.7758C7.2588 12.8351 7.28367 12.891 7.32526 12.933C7.36685 12.975 7.42226 13.0002 7.48097 13.0036H7.81217C8.43137 13.0036 8.74097 12.7329 8.74097 12.1915C8.75068 12.0853 8.73302 11.9783 8.68971 11.8811C8.64639 11.7838 8.57889 11.6995 8.49377 11.6364Z" fill="#B80E00"/>
</svg>
